<svg xmlns="http://www.w3.org/2000/svg" width="251.874" height="55.826" viewBox="0 0 251.874 55.826">
  <g id="android-logo" transform="translate(-28.9 30.52)">
    <path id="Path_4646" data-name="Path 4646" d="M51.933,354.66c-6.507,0-10.885,5.108-10.885,11.675s4.378,11.676,10.885,11.676,10.885-5.108,10.885-11.676c-.061-6.567-4.439-11.675-10.885-11.675m-1.459-7.236a14.616,14.616,0,0,1,11.675,5.594v-4.865h8.027v36.425h-6.2a1.83,1.83,0,0,1-1.824-1.824v-3.04a14.523,14.523,0,0,1-11.675,5.595C40.5,385.308,32.9,376.8,32.9,366.4s7.54-18.973,17.574-18.973m28.824.73h8.027v4.926c2.189-3.649,6.324-5.655,11.067-5.655,8.453,0,13.925,5.959,13.925,15.2v21.952h-6.142a1.83,1.83,0,0,1-1.824-1.824v-18.79c0-5.777-2.919-9.243-7.6-9.243-5.29,0-9.426,4.135-9.426,11.919v17.939H81.183a1.83,1.83,0,0,1-1.824-1.824Zm58.317,6.507c-6.507,0-10.885,5.108-10.885,11.675s4.378,11.676,10.885,11.676S148.5,372.9,148.5,366.336s-4.378-11.675-10.885-11.675m-1.459-7.236a14.616,14.616,0,0,1,11.675,5.594V329.911h8.027v54.668h-6.142a1.83,1.83,0,0,1-1.824-1.824v-3.04a14.523,14.523,0,0,1-11.675,5.595c-9.973,0-17.574-8.513-17.574-18.912s7.54-18.973,17.513-18.973m28.824.73h8.027v6.507a10.314,10.314,0,0,1,9.608-6.872,13.414,13.414,0,0,1,3.1.3V356.3a12.917,12.917,0,0,0-4.013-.669c-4.561,0-8.757,3.892-8.757,11.128v17.756H166.8a1.83,1.83,0,0,1-1.824-1.824ZM207.3,377.829c6.385,0,10.946-5.047,10.946-11.493,0-6.507-4.5-11.493-10.946-11.493-6.507,0-11.007,5.047-11.007,11.493.061,6.507,4.5,11.493,11.007,11.493m0,7.48a18.819,18.819,0,1,1,13.518-5.446,18.943,18.943,0,0,1-13.518,5.446m25.6-37.155h8.027v36.425h-6.142a1.83,1.83,0,0,1-1.824-1.824Zm4.013-7.966a5.464,5.464,0,0,1-5.412-5.412,5.382,5.382,0,1,1,5.412,5.412m29.614,14.473c-6.507,0-10.885,5.108-10.885,11.675s4.378,11.676,10.885,11.676,10.885-5.108,10.885-11.676c-.122-6.567-4.378-11.675-10.885-11.675m-1.459-7.236a14.616,14.616,0,0,1,11.676,5.594V329.911h8.027v54.668h-6.142a1.83,1.83,0,0,1-1.824-1.824v-3.04a14.523,14.523,0,0,1-11.675,5.595c-9.973,0-17.574-8.513-17.574-18.912s7.54-18.973,17.513-18.973" transform="translate(-4 -360.005)" fill="#5c5c5c"/>
  </g>
</svg>
