<svg xmlns="http://www.w3.org/2000/svg" width="70.351" height="72.513" viewBox="0 0 70.351 72.513">
  <g id="earn-icon" transform="translate(-7.635 -0.003)">
    <path id="Path_4642" data-name="Path 4642" d="M38.5,264.4H50.342a4.306,4.306,0,0,0,0-8.613H33.117c-10.768,0-14.176,4.486-17.945,8.254l-6.838,5.973a2.034,2.034,0,0,0-.7,1.531v19.85a.68.68,0,0,0,1.122.516l13.216-11.33a2.05,2.05,0,0,1,1.688-.456l20.594,3.744a5.435,5.435,0,0,0,4.109-.912s26.287-18.277,28.226-19.892h0a4.059,4.059,0,0,0,.131-6.01c-1.7-1.854-4.868-1.461-6.982.1-1.936,1.615-15.165,10.31-15.165,10.31H38.5l-.051.022a1.533,1.533,0,1,1,.1-3.065Z" transform="translate(0 -219.556)" fill="#c0b7e8"/>
    <path id="Path_4643" data-name="Path 4643" d="M306.755,0a10.778,10.778,0,0,0-9.23,5.218,15.823,15.823,0,0,1,10.388,14.831c0,.5-.029,1-.075,1.489A10.8,10.8,0,0,0,306.755,0Z" transform="translate(-248.833)" fill="#c0b7e8"/>
    <path id="Path_4644" data-name="Path 4644" d="M251.665,121.222h-1.7v3.428h1.7a1.729,1.729,0,1,0,0-3.428Z" transform="translate(-208.008 -104.051)" fill="#c0b7e8"/>
    <path id="Path_4645" data-name="Path 4645" d="M184.458,54.441A12.339,12.339,0,1,0,196.8,66.78,12.341,12.341,0,0,0,184.458,54.441Zm.387,14.789h-1.7v2.494a.867.867,0,0,1-.867.867h-.436a.866.866,0,0,1-.867-.867V62.863A.867.867,0,0,1,181.84,62h3.005a3.649,3.649,0,1,1,0,7.234Z" transform="translate(-141.188 -46.728)" fill="#c0b7e8"/>
  </g>
</svg>
