<svg xmlns="http://www.w3.org/2000/svg" width="82.951" height="52.724" viewBox="0 0 82.951 52.724">
  <path id="apple-ios" d="M3.175,4.817a1.455,1.455,0,1,1-2.9,0A1.519,1.519,0,0,1,1.745,3.23a1.464,1.464,0,0,1,1.43,1.587ZM.977,52.49V16.023h1.5V52.49ZM52.25,26.507c0,18.385-10.218,26.743-21.4,26.743-11.426,0-20.679-9.04-20.679-25.983,0-17.4,9.575-26.742,21.483-26.742C43.318.525,52.25,9.717,52.25,26.507Zm-40.566.38c0,13.94,6.764,24.77,19.233,24.77,12.556,0,19.757-11.163,19.757-24.928,0-12.765-5.77-24.415-18.937-24.415S11.685,13.282,11.685,26.887ZM57.743,48.539a21.2,21.2,0,0,0,10.571,3.285c7.074,0,13.365-4.943,13.365-12.218,0-6.752-4.191-10.274-11.306-13.3C64.005,23.6,58.28,20.657,58.28,13.44,58.28,5.919,64.212.6,72.274.6A16.892,16.892,0,0,1,81.4,2.879l-.6,1.312c-1.293-.911-4.788-2.072-8.59-2.072-8.521,0-12.233,6.431-12.233,11.165,0,6.539,5.075,8.726,11.616,11.84,7.605,3.722,11.636,7,11.636,14.146,0,7.673-5.476,13.9-15.212,13.9-4.032,0-8.671-1.367-10.953-3.115l.68-1.519Z" transform="translate(-0.276 -0.526)" fill="#5c5c5c"/>
</svg>
