<svg id="listen-icon" xmlns="http://www.w3.org/2000/svg" width="70" height="61.249" viewBox="0 0 70 61.249">
  <path id="listen-svgrepo-com" d="M65.677,37.275a15.147,15.147,0,0,0-8.8-4.478V23.875a21.875,21.875,0,1,0-43.749,0V32.8A15.282,15.282,0,0,0,.007,48.407C.254,56.59,7.365,63.249,15.864,63.249H17.5a4.379,4.379,0,0,0,4.375-4.375V37A4.379,4.379,0,0,0,17.5,32.624v-8.75a17.5,17.5,0,1,1,35,0v8.75A4.379,4.379,0,0,0,48.124,37V58.874A4.379,4.379,0,0,0,52.5,63.249h1.636c8.5,0,15.61-6.659,15.857-14.842A15.189,15.189,0,0,0,65.677,37.275Zm-61.295,11a10.941,10.941,0,0,1,8.743-11.058v21.3A11.126,11.126,0,0,1,4.382,48.274ZM17.5,58.874H15.864c-.188,0-.365-.044-.551-.053V37H17.5Zm35,0V37h2.187V58.822c-.186.009-.363.053-.551.053Zm4.375-.359v-21.3a10.941,10.941,0,0,1,8.743,11.058A11.126,11.126,0,0,1,56.874,58.515Z" transform="translate(0 -2)" fill="#c0b7e8"/>
  <path id="listen-svgrepo-com_1_" data-name="listen-svgrepo-com (1)" d="M24,2H8A2,2,0,0,0,6,4V28a2,2,0,0,0,2,2H24a2,2,0,0,0,2-2V4A2,2,0,0,0,24,2ZM16,28a5,5,0,1,1,5-5A5.006,5.006,0,0,1,16,28Zm7-12H9a1,1,0,0,1-1-1V5A1,1,0,0,1,9,4H23a1,1,0,0,1,1,1V15A1,1,0,0,1,23,16Zm-4,7a3,3,0,1,1-3-3A3,3,0,0,1,19,23Z" transform="translate(19 29)" fill="#c0b7e8"/>
  <path id="hear-svgrepo-com" d="M7.752,14.188a.665.665,0,0,1-.664-.664V4.664a.664.664,0,0,1,1.329,0v8.859A.665.665,0,0,1,7.752,14.188ZM4.208,13.3a.665.665,0,0,1-.664-.664V5.55a.664.664,0,0,1,1.329,0v7.087A.665.665,0,0,1,4.208,13.3Zm5.315-1.329a.665.665,0,0,1-.664-.664V6.879a.664.664,0,1,1,1.329,0v4.429A.665.665,0,0,1,9.523,11.973Zm-3.544,0a.665.665,0,0,1-.664-.664V6.879a.664.664,0,0,1,1.329,0v4.429A.665.665,0,0,1,5.98,11.973ZM2.436,11.53a.665.665,0,0,1-.664-.664V7.322a.664.664,0,1,1,1.329,0v3.544A.665.665,0,0,1,2.436,11.53Zm10.631-.443a.665.665,0,0,1-.664-.664V7.765a.664.664,0,1,1,1.329,0v2.658A.665.665,0,0,1,13.067,11.087ZM11.3,10.644a.665.665,0,0,1-.664-.664V8.208a.664.664,0,1,1,1.329,0V9.98A.665.665,0,0,1,11.3,10.644ZM.664,10.2A.665.665,0,0,1,0,9.537V8.651a.664.664,0,1,1,1.329,0v.886A.665.665,0,0,1,.664,10.2Z" transform="translate(28.135 30.443)" fill="#c0b7e8"/>
</svg>
