<svg id="search-icon" xmlns="http://www.w3.org/2000/svg" width="70" height="69.943" viewBox="0 0 70 69.943">
  <g id="search-svgrepo-com" transform="translate(0 -0.2)">
    <g id="Group_36" data-name="Group 36" transform="translate(0 0.2)">
      <path id="Path_4641" data-name="Path 4641" d="M69.118,65.157l-20.084-20.1a27.131,27.131,0,0,0,6.341-17.444A27.689,27.689,0,0,0,0,27.629,27.716,27.716,0,0,0,44.859,49.1L65.015,69.26a2.9,2.9,0,1,0,4.1-4.1ZM5.882,27.629a21.793,21.793,0,0,1,43.582,0,21.793,21.793,0,0,1-43.582,0Z" transform="translate(0 -0.2)" fill="#c0b7e8"/>
    </g>
  </g>
  <path id="music-note-svgrepo-com" d="M31.072,21.737c0,.318-.006.669-.032,1.039A7.722,7.722,0,0,1,29.1,27.717a5.523,5.523,0,0,1-3.644,1.629,4.821,4.821,0,0,1-5.088-5.088,5.523,5.523,0,0,1,1.629-3.644,7.721,7.721,0,0,1,4.941-1.941c.384-.027.748-.035,1.076-.031V12.8l-15.3,2.55V24.8c0,.318-.006.669-.032,1.039a7.722,7.722,0,0,1-1.941,4.941,5.523,5.523,0,0,1-3.644,1.629A4.821,4.821,0,0,1,2,27.318a5.523,5.523,0,0,1,1.629-3.644,7.721,7.721,0,0,1,4.941-1.941c.384-.027.748-.035,1.076-.031V10.288a6.12,6.12,0,0,1,5.114-6.037L25.727,2.424a4.59,4.59,0,0,1,5.345,4.528V21.7C31.072,21.713,31.072,21.725,31.072,21.737ZM28.012,6.952A1.53,1.53,0,0,0,26.23,5.442L15.268,7.269a3.06,3.06,0,0,0-2.557,3.019v1.956l15.3-2.55ZM8.79,24.785A4.759,4.759,0,0,0,5.8,25.838a2.464,2.464,0,0,0-.735,1.613,1.763,1.763,0,0,0,1.9,1.9,2.465,2.465,0,0,0,1.613-.735,4.759,4.759,0,0,0,1.053-2.992c.022-.305.027-.6.024-.86C9.386,24.758,9.1,24.764,8.79,24.785Zm15.369-2.008a4.759,4.759,0,0,1,2.992-1.053c.305-.021.6-.027.86-.024,0,.263,0,.554-.023.86a4.759,4.759,0,0,1-1.053,2.992,2.465,2.465,0,0,1-1.613.735,1.763,1.763,0,0,1-1.9-1.9A2.465,2.465,0,0,1,24.159,22.777Z" transform="translate(9 7.971)" fill="#c0b7e8" fill-rule="evenodd"/>
</svg>
